# xmcd
#
# Track frame offsets:
#	225
#	16384
#	34163
#	52362
#	67479
#	79478
#	95543
#	115623
#	132775
#	154594
#
# Disc length: 2307 seconds
#
# Revision: 1
# Processed by: cddbd v1.5.2PL0 Copyright (c) Steve Scherf et al.
# Submitted via: FairStars CD Ripper 1.52
#
DISCID=8c09000a
DTITLE=Johnny Jenkins - All In Good Time
DYEAR=2000
DGENRE=Blues
TTITLE0=Mean Old World
TTITLE1=Big Bad Wolf
TTITLE2=Down The Road I Go
TTITLE3=Green Onions
TTITLE4=Having A Party
TTITLE5=Tribute to a King
TTITLE6=Scratch My Back
TTITLE7=Honky Tonk
TTITLE8=Please Mama Please
TTITLE9=Help Me To Understand
EXTD=
EXTT0=
EXTT1=
EXTT2=
EXTT3=
EXTT4=
EXTT5=
EXTT6=
EXTT7=
EXTT8=
EXTT9=
PLAYORDER=
